<mxfile host="app.diagrams.net" modified="2024-05-29T21:22:20.334Z" agent="Mozilla/5.0 (Windows NT 10.0; Win64; x64) AppleWebKit/537.36 (KHTML, like Gecko) Chrome/125.0.0.0 Safari/537.36" etag="8CVwz0zPWXpAO5j495kl" version="24.4.9" type="device">
  <diagram name="PÃ¡gina-1" id="XRfiXsR_yG7akixWKo0F">
    <mxGraphModel dx="1434" dy="756" grid="1" gridSize="10" guides="1" tooltips="1" connect="1" arrows="1" fold="1" page="1" pageScale="1" pageWidth="827" pageHeight="1169" math="0" shadow="0">
      <root>
        <mxCell id="0" />
        <mxCell id="1" parent="0" />
        <mxCell id="ki3P-yzMdWdDEXX9_obk-1" value="SistemaOperacional" style="swimlane;fontStyle=1;align=center;verticalAlign=top;childLayout=stackLayout;horizontal=1;startSize=26;horizontalStack=0;resizeParent=1;resizeParentMax=0;resizeLast=0;collapsible=1;marginBottom=0;whiteSpace=wrap;html=1;" vertex="1" parent="1">
          <mxGeometry x="334" y="190" width="160" height="70" as="geometry" />
        </mxCell>
        <mxCell id="ki3P-yzMdWdDEXX9_obk-3" value="" style="line;strokeWidth=1;fillColor=none;align=left;verticalAlign=middle;spacingTop=-1;spacingLeft=3;spacingRight=3;rotatable=0;labelPosition=right;points=[];portConstraint=eastwest;strokeColor=inherit;" vertex="1" parent="ki3P-yzMdWdDEXX9_obk-1">
          <mxGeometry y="26" width="160" height="44" as="geometry" />
        </mxCell>
        <mxCell id="ki3P-yzMdWdDEXX9_obk-5" value="&lt;p style=&quot;margin:0px;margin-top:4px;text-align:center;&quot;&gt;&lt;i&gt;&amp;lt;&amp;lt;Interface&amp;gt;&amp;gt;&lt;/i&gt;&lt;br&gt;&lt;b&gt;ReprodutorMusical&lt;/b&gt;&lt;/p&gt;&lt;hr size=&quot;1&quot; style=&quot;border-style:solid;&quot;&gt;&lt;p style=&quot;margin:0px;margin-left:4px;&quot;&gt;+ musica: String&lt;br&gt;+ opcao: Int&lt;/p&gt;&lt;hr size=&quot;1&quot; style=&quot;border-style:solid;&quot;&gt;&lt;p style=&quot;margin:0px;margin-left:4px;&quot;&gt;+ selecionarMusica (String musica): void&lt;br&gt;+ tocarMusica():void&lt;/p&gt;&lt;p style=&quot;margin:0px;margin-left:4px;&quot;&gt;+ pausarMusica(): void&lt;br&gt;+ menuReprodutorMusical(): void&lt;/p&gt;" style="verticalAlign=top;align=left;overflow=fill;html=1;whiteSpace=wrap;" vertex="1" parent="1">
          <mxGeometry x="50" y="360" width="190" height="180" as="geometry" />
        </mxCell>
        <mxCell id="ki3P-yzMdWdDEXX9_obk-8" value="Iphone" style="swimlane;fontStyle=1;align=center;verticalAlign=top;childLayout=stackLayout;horizontal=1;startSize=26;horizontalStack=0;resizeParent=1;resizeParentMax=0;resizeLast=0;collapsible=1;marginBottom=0;whiteSpace=wrap;html=1;" vertex="1" parent="1">
          <mxGeometry x="334" y="60" width="160" height="70" as="geometry" />
        </mxCell>
        <mxCell id="ki3P-yzMdWdDEXX9_obk-10" value="" style="line;strokeWidth=1;fillColor=none;align=left;verticalAlign=middle;spacingTop=-1;spacingLeft=3;spacingRight=3;rotatable=0;labelPosition=right;points=[];portConstraint=eastwest;strokeColor=inherit;" vertex="1" parent="ki3P-yzMdWdDEXX9_obk-8">
          <mxGeometry y="26" width="160" height="44" as="geometry" />
        </mxCell>
        <mxCell id="ki3P-yzMdWdDEXX9_obk-12" value="&lt;p style=&quot;margin:0px;margin-top:4px;text-align:center;&quot;&gt;&lt;i&gt;&amp;lt;&amp;lt;Interface&amp;gt;&amp;gt;&lt;/i&gt;&lt;br&gt;&lt;b&gt;AparelhoTelefonico&lt;/b&gt;&lt;/p&gt;&lt;hr size=&quot;1&quot; style=&quot;border-style:solid;&quot;&gt;&lt;p style=&quot;margin:0px;margin-left:4px;&quot;&gt;+ numeroTelefone: String&lt;br&gt;+ opcao: Int&lt;/p&gt;&lt;hr size=&quot;1&quot; style=&quot;border-style:solid;&quot;&gt;&lt;p style=&quot;margin:0px;margin-left:4px;&quot;&gt;+ ligar (String numeroTelefone): void&lt;br&gt;+ atender(): void&lt;br&gt;+ correioDeVoz(): void&lt;br&gt;+ menuAparelhoTelefonico(): void&lt;/p&gt;" style="verticalAlign=top;align=left;overflow=fill;html=1;whiteSpace=wrap;" vertex="1" parent="1">
          <mxGeometry x="319" y="360" width="190" height="180" as="geometry" />
        </mxCell>
        <mxCell id="ki3P-yzMdWdDEXX9_obk-13" value="&lt;p style=&quot;margin:0px;margin-top:4px;text-align:center;&quot;&gt;&lt;i&gt;&amp;lt;&amp;lt;Interface&amp;gt;&amp;gt;&lt;/i&gt;&lt;br&gt;&lt;b&gt;NavegadorInternet&lt;/b&gt;&lt;/p&gt;&lt;hr size=&quot;1&quot; style=&quot;border-style:solid;&quot;&gt;&lt;p style=&quot;margin:0px;margin-left:4px;&quot;&gt;+ url: String&lt;br&gt;+ opcao: Int&lt;/p&gt;&lt;hr size=&quot;1&quot; style=&quot;border-style:solid;&quot;&gt;&lt;p style=&quot;margin:0px;margin-left:4px;&quot;&gt;+ exibirPagina(String url): void&lt;br&gt;+ atualizarPagina(): void&lt;/p&gt;&lt;p style=&quot;margin:0px;margin-left:4px;&quot;&gt;+ adicionarNovaPagina(): void&lt;br&gt;+ menuNavegadorInternet(): void&lt;/p&gt;" style="verticalAlign=top;align=left;overflow=fill;html=1;whiteSpace=wrap;" vertex="1" parent="1">
          <mxGeometry x="590" y="360" width="190" height="180" as="geometry" />
        </mxCell>
        <mxCell id="ki3P-yzMdWdDEXX9_obk-16" value="" style="endArrow=open;endFill=1;endSize=12;html=1;rounded=0;entryX=0.5;entryY=0;entryDx=0;entryDy=0;exitX=0.5;exitY=1;exitDx=0;exitDy=0;" edge="1" parent="1" source="ki3P-yzMdWdDEXX9_obk-8" target="ki3P-yzMdWdDEXX9_obk-1">
          <mxGeometry width="160" relative="1" as="geometry">
            <mxPoint x="400" y="130" as="sourcePoint" />
            <mxPoint x="490" y="390" as="targetPoint" />
            <Array as="points" />
          </mxGeometry>
        </mxCell>
        <mxCell id="ki3P-yzMdWdDEXX9_obk-17" value="" style="endArrow=open;endFill=1;endSize=12;html=1;rounded=0;entryX=0.563;entryY=-0.006;entryDx=0;entryDy=0;exitX=0.5;exitY=1;exitDx=0;exitDy=0;entryPerimeter=0;" edge="1" parent="1" source="ki3P-yzMdWdDEXX9_obk-1" target="ki3P-yzMdWdDEXX9_obk-5">
          <mxGeometry width="160" relative="1" as="geometry">
            <mxPoint x="424" y="140" as="sourcePoint" />
            <mxPoint x="424" y="200" as="targetPoint" />
            <Array as="points" />
          </mxGeometry>
        </mxCell>
        <mxCell id="ki3P-yzMdWdDEXX9_obk-18" value="" style="endArrow=open;endFill=1;endSize=12;html=1;rounded=0;entryX=0.5;entryY=0;entryDx=0;entryDy=0;exitX=0.5;exitY=1;exitDx=0;exitDy=0;" edge="1" parent="1" source="ki3P-yzMdWdDEXX9_obk-1" target="ki3P-yzMdWdDEXX9_obk-12">
          <mxGeometry width="160" relative="1" as="geometry">
            <mxPoint x="424" y="270" as="sourcePoint" />
            <mxPoint x="157" y="329" as="targetPoint" />
            <Array as="points" />
          </mxGeometry>
        </mxCell>
        <mxCell id="ki3P-yzMdWdDEXX9_obk-19" value="" style="endArrow=open;endFill=1;endSize=12;html=1;rounded=0;entryX=0.5;entryY=0;entryDx=0;entryDy=0;exitX=0.5;exitY=1;exitDx=0;exitDy=0;" edge="1" parent="1" source="ki3P-yzMdWdDEXX9_obk-1" target="ki3P-yzMdWdDEXX9_obk-13">
          <mxGeometry width="160" relative="1" as="geometry">
            <mxPoint x="424" y="270" as="sourcePoint" />
            <mxPoint x="424" y="330" as="targetPoint" />
            <Array as="points" />
          </mxGeometry>
        </mxCell>
      </root>
    </mxGraphModel>
  </diagram>
</mxfile>
